<svg xmlns="http://www.w3.org/2000/svg" width="46px" height="46px" viewBox="0 0 48 48">
  <path fill="#4285F4" d="M23.49 12.27c1.84 0 3.5.63 4.8 1.86l3.6-3.6C29.74 8.21 26.88 7 23.49 7 17.99 7 13.12 10.66 11.15 15.71l4.24 3.3c.84-3.66 4.2-6.74 8.1-6.74z"/>
  <path fill="#34A853" d="M46.5 24.5c0-1.49-.12-2.58-.36-3.71H23.5v7.04h12.96c-.26 1.66-1.52 4.16-4.3 5.84l4.33 3.33C42.29 34.9 46.5 30.36 46.5 24.5z"/>
  <path fill="#FBBC05" d="M11.15 15.71c-.48 1.34-.76 2.77-.76 4.29s.27 2.95.76 4.29l4.24-3.3c-.2-.59-.31-1.21-.31-1.99s.11-1.4.31-1.99l-4.24-3.3z"/>
  <path fill="#EA4335" d="M23.49 41c5.31 0 9.76-1.76 13.01-4.79l-4.33-3.33c-2.07 1.4-4.7 2.25-8.68 2.25-4.9 0-9.05-3.28-10.52-7.82l-4.26 3.28C11.14 37.18 16.71 41 23.49 41z"/>
  <path fill="none" d="M0 0h48v48H0z"/>
</svg>
